Coordinates
version=1
nRows=12
nColumns=24
inDegrees=yes

Units are S.I. units (second, meters, Newtons, ...)
Angles are in degrees.

endheader
time	pelvis_tilt	pelvis_list	pelvis_rotation	pelvis_tx	pelvis_ty	pelvis_tz	hip_flexion_r	hip_adduction_r	hip_rotation_r	knee_angle_r	ankle_angle_r	subtalar_angle_r	mtp_angle_r	hip_flexion_l	hip_adduction_l	hip_rotation_l	knee_angle_l	ankle_angle_l	subtalar_angle_l	mtp_angle_l	lumbar_extension	lumbar_bending	lumbar_rotation
      0.82883333	      3.39520189	      0.18788360	     -1.51554708	     -0.41469408	      1.02313126	      0.26922506	      6.09472346	      4.46685586	      3.99711172	    -16.20814292	      5.09296374	    -17.27076775	      7.02137464	     10.47359613	     -2.07420709	     -6.02005523	    -66.44494295	      3.08534563	    -13.41926124	     -0.56245281	     -4.36943365	     -0.25034488	      2.80686330
      0.83300000	      3.40114626	      0.30870765	     -1.70764002	     -0.40961663	      1.02395550	      0.26954162	      5.61584514	      4.31292433	      4.07146304	    -15.87915385	      5.21164921	    -17.05655575	      7.06314452	     10.97504277	     -1.95268696	     -6.19784957	    -66.04035889	      3.40877653	    -12.94197731	     -0.53294160	     -4.38348334	     -0.35968082	      3.12276353
      0.83716667	      3.37495343	      0.42857338	     -1.89335436	     -0.40455932	      1.02468362	      0.26985588	      5.17477397	      4.15926406	      4.14425270	    -15.54848613	      5.26517039	    -16.85345112	      7.09084007	     11.50760619	     -1.83929871	     -6.37484366	    -65.59923877	      3.69812951	    -12.47835914	     -0.50552901	     -4.37313028	     -0.49323472	      3.34438505
      0.84133333	      3.37589539	      0.51593718	     -2.07510241	     -0.39951596	      1.02540019	      0.27015719	      4.69728462	      4.03770864	      4.21488575	    -15.20737525	      5.42794099	    -16.62902740	      7.14439669	     12.00176013	     -1.76514402	     -6.54211695	    -65.12779127	      4.03282183	    -11.94734800	     -0.45222379	     -4.39450286	     -0.56372247	      3.73428986
      0.84550000	      3.37043178	      0.61933748	     -2.26373594	     -0.39448483	      1.02607576	      0.27046514	      4.23401904	      3.89638593	      4.28547654	    -14.87383681	      5.53737450	    -16.42538883	      7.19240090	     12.48699241	     -1.67665380	     -6.71938400	    -64.59827195	      4.32763426	    -11.43402414	     -0.39734226	     -4.40431132	     -0.66192738	      4.02939143
      0.84966667	      3.35716148	      0.70730293	     -2.44656165	     -0.38947008	      1.02668484	      0.27075808	      3.77715418	      3.77077790	      4.35915613	    -14.53338996	      5.63952480	    -16.21992722	      7.24833916	     12.97381153	     -1.60802097	     -6.89049136	    -64.03837571	      4.61623572	    -10.93381585	     -0.32867726	     -4.41275482	     -0.74433637	      4.34310497
      0.85383333	      3.36166172	      0.80857418	     -2.63838665	     -0.38447350	      1.02729986	      0.27105208	      3.30550716	      3.62622092	      4.43063647	    -14.19454397	      5.72284267	    -16.00509705	      7.33307239	     13.42193097	     -1.52284325	     -7.06635080	    -63.41705506	      4.87847202	    -10.46506235	     -0.22027603	     -4.44189652	     -0.83726117	      4.69642856
      0.85800000	      3.33891751	      0.90148663	     -2.81948621	     -0.37947362	      1.02781784	      0.27134197	      2.86786181	      3.49238873	      4.49494434	    -13.86774828	      5.81712337	    -15.83695975	      7.37015981	     13.89112761	     -1.45521995	     -7.23948777	    -62.76446926	      5.12706609	     -9.97524224	     -0.16643844	     -4.42617434	     -0.92973962	      4.88186810
      0.86216667	      3.32549786	      0.97632720	     -2.99574055	     -0.37449892	      1.02831115	      0.27162558	      2.41347274	      3.37632550	      4.56625593	    -13.52263922	      5.90491281	    -15.65537223	      7.40761862	     14.34057021	     -1.40849651	     -7.40258023	    -62.07963026	      5.37524209	     -9.50116041	     -0.10989144	     -4.43640076	     -1.00797530	      5.14127140
      0.86633333	      3.32102216	      1.05348791	     -3.16961024	     -0.36953480	      1.02876732	      0.27190818	      1.95141087	      3.25678212	      4.63869225	    -13.18067664	      6.00046564	    -15.47926279	      7.44670040	     14.76673429	     -1.36315498	     -7.57191112	    -61.35520377	      5.60540534	     -9.05327847	     -0.04926475	     -4.46092340	     -1.08557557	      5.42756857
      0.87050000	      3.32302162	      1.09985153	     -3.32891769	     -0.36458435	      1.02917667	      0.27216964	      1.47453655	      3.16958863	      4.71286997	    -12.82701391	      6.12978164	    -15.32631526	      7.50165215	     15.17914548	     -1.35152650	     -7.72155356	    -60.61060533	      5.83268334	     -8.64571571	      0.03645047	     -4.48982098	     -1.11678430	      5.77349859
      0.87466667	      3.29622490	      1.15562305	     -3.49153151	     -0.35965183	      1.02949803	      0.27242909	      1.04007321	      3.07289673	      4.79153459	    -12.48987958	      6.21783319	    -15.18186499	      7.55977132	     15.60883518	     -1.32938839	     -7.87003655	    -59.82377047	      6.02600064	     -8.26834728	      0.13161538	     -4.49120719	     -1.16232075	      6.06399727
